<svg width="54" height="54" viewBox="0 0 54 54" fill="none" xmlns="http://www.w3.org/2000/svg">
<path fill-rule="evenodd" clip-rule="evenodd" d="M15.4431 53.6667H38.5542C47.5949 53.6667 53.6666 47.325 53.6666 37.8887V16.1113C53.6666 6.67496 47.5949 0.333328 38.5568 0.333328H15.4431C6.40503 0.333328 0.333313 6.67496 0.333313 16.1113V37.8887C0.333313 47.325 6.40503 53.6667 15.4431 53.6667ZM17.6636 24.3333C13.9872 24.3333 11 21.342 11 17.6667C11 13.9913 13.9872 11 17.6636 11C21.3373 11 24.3272 13.9913 24.3272 17.6667C24.3272 21.342 21.3373 24.3333 17.6636 24.3333ZM47.8555 34.8239C48.7484 37.1135 48.2845 39.8655 47.3299 42.1331C46.1983 44.8301 44.0316 46.872 41.3018 47.7637C40.0898 48.16 38.8187 48.3333 37.5503 48.3333H15.0764C12.84 48.3333 10.861 47.7967 9.23866 46.7977C8.22235 46.1703 8.04269 44.7227 8.7962 43.7843C10.0565 42.2157 11.3008 40.6415 12.5557 39.0537C14.9477 36.0155 16.5593 35.1348 18.3505 35.9081C19.0772 36.2274 19.8066 36.7062 20.5574 37.2126C22.5579 38.5721 25.3386 40.4407 29.0016 38.4124C31.5082 37.0085 32.9621 34.6003 34.2282 32.5033L34.2494 32.4682C34.3391 32.3211 34.428 32.1739 34.5166 32.0272L34.5167 32.0272C34.9422 31.3232 35.362 30.6286 35.8368 29.9886C36.4321 29.1878 38.639 26.6835 41.4976 28.4668C43.3183 29.5896 44.8495 31.1087 46.4879 32.7351C47.1127 33.3571 47.5578 34.0643 47.8555 34.8239Z" fill="#9FA5C0"/>
</svg>
