<svg width="16" height="25" viewBox="0 0 16 25" fill="none" xmlns="http://www.w3.org/2000/svg">
<path fill-rule="evenodd" clip-rule="evenodd" d="M13.0455 0.75H3.22727C1.72182 0.75 0.5 1.97182 0.5 3.47727V22.0227C0.5 23.5282 1.72182 24.75 3.22727 24.75H13.0455C14.5509 24.75 15.7727 23.5282 15.7727 22.0227V3.47727C15.7727 1.97182 14.5509 0.75 13.0455 0.75ZM8.13636 22.7045C7.45782 22.7045 6.90909 22.1558 6.90909 21.4773C6.90909 20.7987 7.45782 20.25 8.13636 20.25C8.81491 20.25 9.36364 20.7987 9.36364 21.4773C9.36364 22.1558 8.81491 22.7045 8.13636 22.7045ZM13.5909 19.2955H2.68182V4.02273H13.5909V19.2955Z" fill="#494AFF"/>
</svg>
