<svg width="23" height="23" viewBox="0 0 23 23" fill="none" xmlns="http://www.w3.org/2000/svg">
<path fill-rule="evenodd" clip-rule="evenodd" d="M20.243 10.9422H18.6017V6.5653C18.6017 5.36166 17.6169 4.37687 16.4132 4.37687H12.0364V2.73554C12.0364 1.20364 10.8327 0 9.30084 0C7.76894 0 6.5653 1.20364 6.5653 2.73554V4.37687H2.18843C0.984795 4.37687 0 5.36166 0 6.5653V10.7233H1.64132C3.28265 10.7233 4.59571 12.0364 4.59571 13.6777C4.59571 15.319 3.28265 16.6321 1.64132 16.6321H0V20.7901C0 21.9937 0.984795 22.9785 2.18843 22.9785H6.34646V21.3372C6.34646 19.6959 7.65951 18.3828 9.30084 18.3828C10.9422 18.3828 12.2552 19.6959 12.2552 21.3372V22.9785H16.4132C17.6169 22.9785 18.6017 21.9937 18.6017 20.7901V16.4132H20.243C21.7749 16.4132 22.9785 15.2096 22.9785 13.6777C22.9785 12.1458 21.7749 10.9422 20.243 10.9422Z" fill="#494AFF"/>
</svg>
