<svg width="24" height="24" viewBox="0 0 24 24" fill="none" xmlns="http://www.w3.org/2000/svg">
<path fill-rule="evenodd" clip-rule="evenodd" d="M12.001 0C5.3755 0 0.000488281 5.36802 0.000488281 11.9937C0.000488281 18.6257 5.3755 24 12.0009 24C18.63 24 24.0005 18.6256 24.0005 11.9937C24.0005 5.36802 18.63 0 12.001 0ZM12.8561 18.6708C12.5774 18.9188 12.2544 19.0435 11.8885 19.0435C11.5099 19.0435 11.1797 18.9211 10.8978 18.6758C10.6155 18.4309 10.474 18.0881 10.474 17.6476C10.474 17.2568 10.6109 16.928 10.8838 16.6614C11.1567 16.3949 11.4914 16.2616 11.8885 16.2616C12.2793 16.2616 12.6082 16.3949 12.8751 16.6614C13.1417 16.928 13.2754 17.2568 13.2754 17.6476C13.2749 18.0817 13.1353 18.4228 12.8561 18.6708ZM16.3315 10.0553C16.1174 10.4523 15.863 10.7947 15.568 11.0834C15.2739 11.3721 14.745 11.8573 13.9815 12.5394C13.7709 12.7318 13.6015 12.9008 13.4746 13.0462C13.3477 13.1922 13.2528 13.3254 13.1909 13.4465C13.1285 13.5675 13.0807 13.6886 13.0468 13.8096C13.0129 13.9302 12.9618 14.143 12.8927 14.447C12.7753 15.0921 12.4062 15.4146 11.7859 15.4146C11.4633 15.4146 11.1923 15.3094 10.9714 15.0984C10.7514 14.8874 10.6416 14.5744 10.6416 14.1588C10.6416 13.638 10.7225 13.1866 10.8837 12.805C11.0441 12.4232 11.2587 12.0885 11.5253 11.7998C11.7922 11.5112 12.1518 11.1687 12.6049 10.7717C13.002 10.4243 13.2889 10.1623 13.4655 9.98563C13.6426 9.80857 13.7913 9.61162 13.9119 9.39476C14.0334 9.17747 14.0931 8.94211 14.0931 8.6878C14.0931 8.19136 13.9092 7.77305 13.5397 7.43199C13.1706 7.09094 12.6944 6.92016 12.1112 6.92016C11.4286 6.92016 10.9263 7.09227 10.6037 7.4365C10.2811 7.78072 10.0087 8.28756 9.7851 8.95751C9.57369 9.65863 9.17343 10.0091 8.58476 10.0091C8.23736 10.0091 7.94419 9.88671 7.70521 9.64185C7.46668 9.39699 7.34741 9.13184 7.34741 8.84636C7.34741 8.25727 7.5367 7.66007 7.91484 7.0552C8.29343 6.45033 8.84547 5.94933 9.57141 5.5527C10.2969 5.15562 11.144 4.95683 12.1112 4.95683C13.0106 4.95683 13.8044 5.12305 14.4929 5.45511C15.1813 5.78666 15.7135 6.23798 16.0889 6.80895C16.4639 7.37948 16.6518 7.99974 16.6518 8.66969C16.6527 9.19603 16.5456 9.65819 16.3315 10.0553Z" fill="#494AFF"/>
</svg>
