<svg width="18" height="18" viewBox="0 0 18 18" fill="none" xmlns="http://www.w3.org/2000/svg">
<path d="M17.4678 5.96715C17.4678 5.96715 17.4678 5.96715 17.4678 5.92202C16.8324 4.18556 15.6795 2.68634 14.165 1.62717C12.6505 0.568002 10.8475 0 9 0C7.15246 0 5.3495 0.568002 3.83501 1.62717C2.32052 2.68634 1.1676 4.18556 0.532197 5.92202C0.532197 5.92202 0.532197 5.92202 0.532197 5.96715C-0.177399 7.92668 -0.177399 10.0733 0.532197 12.0328C0.532197 12.0328 0.532197 12.0328 0.532197 12.078C1.1676 13.8144 2.32052 15.3137 3.83501 16.3728C5.3495 17.432 7.15246 18 9 18C10.8475 18 12.6505 17.432 14.165 16.3728C15.6795 15.3137 16.8324 13.8144 17.4678 12.078C17.4678 12.078 17.4678 12.078 17.4678 12.0328C18.1774 10.0733 18.1774 7.92668 17.4678 5.96715V5.96715ZM2.00211 10.8053C1.6894 9.62211 1.6894 8.37789 2.00211 7.19473H3.67944C3.53518 8.39391 3.53518 9.60609 3.67944 10.8053H2.00211ZM2.74158 12.6105H4.00409C4.21575 13.4155 4.5183 14.1938 4.90588 14.9303C4.02149 14.3273 3.2822 13.5349 2.74158 12.6105ZM4.00409 5.38947H2.74158C3.27442 4.46796 4.00426 3.67579 4.87882 3.0697C4.50057 3.80737 4.20712 4.5856 4.00409 5.38947V5.38947ZM8.08017 15.9503C6.97257 15.1367 6.19467 13.9512 5.88883 12.6105H8.08017V15.9503ZM8.08017 10.8053H5.50106C5.33277 9.60765 5.33277 8.39235 5.50106 7.19473H8.08017V10.8053ZM8.08017 5.38947H5.88883C6.19467 4.04885 6.97257 2.86329 8.08017 2.04973V5.38947ZM15.2223 5.38947H13.9598C13.7482 4.58446 13.4456 3.80619 13.0581 3.0697C13.9424 3.67272 14.6817 4.46512 15.2223 5.38947ZM9.88375 2.04973C10.9914 2.86329 11.7693 4.04885 12.0751 5.38947H9.88375V2.04973ZM9.88375 15.9503V12.6105H12.0751C11.7693 13.9512 10.9914 15.1367 9.88375 15.9503V15.9503ZM12.4629 10.8053H9.88375V7.19473H12.4629C12.6312 8.39235 12.6312 9.60765 12.4629 10.8053ZM13.0851 14.9303C13.4727 14.1938 13.7752 13.4155 13.9869 12.6105H15.2494C14.7088 13.5349 13.9695 14.3273 13.0851 14.9303ZM15.9618 10.8053H14.2845C14.3578 10.2063 14.394 9.60342 14.3927 9C14.3937 8.39659 14.3576 7.79369 14.2845 7.19473H15.9618C16.2745 8.37789 16.2745 9.62211 15.9618 10.8053Z" fill="#494AFF"/>
</svg>
