<svg width="62" height="24" viewBox="0 0 62 24" fill="none" xmlns="http://www.w3.org/2000/svg">
<path d="M28.743 11.6725V18.7485H26.4822V1.27486H32.4757C33.9947 1.27486 35.2899 1.77778 36.3497 2.78363C37.433 3.78948 37.9746 5.01755 37.9746 6.46784C37.9746 7.95321 37.433 9.18128 36.3497 10.1754C35.3017 11.1696 34.0064 11.6608 32.4757 11.6608H28.743V11.6725ZM28.743 3.4269V9.52046H32.5228C33.4177 9.52046 34.1713 9.21637 34.7601 8.61988C35.3606 8.02339 35.6667 7.29824 35.6667 6.47953C35.6667 5.67251 35.3606 4.95907 34.7601 4.36258C34.1713 3.74269 33.4295 3.4386 32.5228 3.4386H28.743V3.4269Z" fill="white"/>
<path d="M43.8857 6.39763C45.5578 6.39763 46.8766 6.84207 47.8422 7.73096C48.8077 8.61985 49.2905 9.83622 49.2905 11.3801V18.7485H47.1356V17.0877H47.0415C46.1112 18.4561 44.8631 19.1345 43.3087 19.1345C41.9782 19.1345 40.8713 18.7485 39.9764 17.9649C39.0815 17.1812 38.634 16.2105 38.634 15.0409C38.634 13.8011 39.105 12.8187 40.047 12.0935C40.9891 11.3567 42.249 10.9941 43.8151 10.9941C45.1574 10.9941 46.2643 11.2397 47.1239 11.731V11.2163C47.1239 10.4327 46.8177 9.77774 46.1936 9.22803C45.5696 8.67833 44.8395 8.40932 44.0035 8.40932C42.7435 8.40932 41.7427 8.93564 41.0126 9.99996L39.0226 8.7602C40.1177 7.18125 41.7427 6.39763 43.8857 6.39763ZM40.9655 15.076C40.9655 15.6608 41.2128 16.152 41.7191 16.538C42.2137 16.9239 42.8024 17.1228 43.4736 17.1228C44.4274 17.1228 45.2752 16.7719 46.017 16.0701C46.7588 15.3684 47.1356 14.5497 47.1356 13.6023C46.4291 13.0526 45.4518 12.7719 44.1919 12.7719C43.2734 12.7719 42.508 12.9941 41.8957 13.4269C41.2717 13.883 40.9655 14.4327 40.9655 15.076Z" fill="white"/>
<path d="M61.5837 6.78363L54.0476 24H51.7162L54.5186 17.9766L49.5496 6.78363H52.0106L55.5902 15.3684H55.6373L59.1227 6.78363H61.5837Z" fill="white"/>
<path d="M19.7504 10.2456C19.7504 9.51341 19.6845 8.81283 19.562 8.13914H10.0854V11.9988L15.5432 12C15.3218 13.2842 14.6094 14.3789 13.5179 15.1087V17.6128H16.7666C18.6636 15.869 19.7504 13.2912 19.7504 10.2456Z" fill="#4285F4"/>
<path d="M13.519 15.1088C12.6147 15.7146 11.4501 16.069 10.0877 16.069C7.45602 16.069 5.22347 14.3076 4.42394 11.9333H1.07275V14.5158C2.73304 17.7883 6.14545 20.0339 10.0877 20.0339C12.8125 20.0339 15.1016 19.1438 16.7677 17.6117L13.519 15.1088Z" fill="#34A853"/>
<path d="M4.10832 10.0176C4.10832 9.3509 4.22018 8.70646 4.42389 8.10061V5.51816H1.07271C0.386221 6.87137 0 8.39886 0 10.0176C0 11.6363 0.387398 13.1638 1.07271 14.517L4.42389 11.9345C4.22018 11.3287 4.10832 10.6842 4.10832 10.0176Z" fill="#FABB05"/>
<path d="M10.0877 3.96494C11.5749 3.96494 12.9067 4.47371 13.9582 5.46786L16.8372 2.61055C15.0886 0.993013 12.809 3.05176e-05 10.0877 3.05176e-05C6.14663 3.05176e-05 2.73304 2.24564 1.07275 5.51815L4.42394 8.10061C5.22347 5.72634 7.45602 3.96494 10.0877 3.96494Z" fill="#E94235"/>
</svg>
