<svg width="23" height="23" viewBox="0 0 23 23" fill="none" xmlns="http://www.w3.org/2000/svg">
<path fill-rule="evenodd" clip-rule="evenodd" d="M21.6352 7.00936C22.4718 6.2762 23 5.19979 23 4C23 1.79086 21.2091 0 19 0C17.8121 0 16.7451 0.517855 16.0125 1.34013C15.9787 1.37799 15.9457 1.4165 15.9134 1.45563C15.3428 2.14706 15 3.0335 15 4C15 6.20914 16.7909 8 19 8C20.0093 8 20.9314 7.62615 21.6352 7.00936ZM11 1C11.7204 1 12.6824 1.05365 13.7269 1.135C13.2634 1.98635 13 2.96242 13 4C13 7.31371 15.6863 10 19 10C20.0267 10 20.9932 9.74212 21.8382 9.28759C21.9344 10.4935 22 11.5967 22 12.361C22 13.9637 21.7114 16.8286 21.4581 19.0348C21.2514 20.8345 19.8348 22.2456 18.0343 22.4461C15.7351 22.7022 12.6971 23 11 23C9.30294 23 6.26486 22.7022 3.96567 22.4461C2.16523 22.2456 0.748559 20.8345 0.541901 19.0348C0.288577 16.8286 0 13.9637 0 12.361C0 10.7015 0.309409 7.44492 0.568706 5.00714C0.762286 3.18722 2.18684 1.75166 4.00583 1.54942C6.30013 1.29432 9.3128 1 11 1Z" fill="#494AFF"/>
</svg>
