<svg width="16" height="17" viewBox="0 0 16 17" fill="none" xmlns="http://www.w3.org/2000/svg">
<path fill-rule="evenodd" clip-rule="evenodd" d="M0 8.95087C0 4.55882 3.57321 0.985611 7.96526 0.985611C12.3572 0.985611 15.9305 4.55882 15.9305 8.95087C15.9305 13.3429 12.3573 16.9161 7.96526 16.9161C3.57321 16.9161 0 13.3429 0 8.95087ZM1.36549 8.95087C1.36549 12.5899 4.32622 15.5506 7.96526 15.5506C11.6042 15.5506 14.565 12.5899 14.565 8.95087C14.565 5.31183 11.6043 2.3511 7.96526 2.3511C4.32622 2.3511 1.36549 5.31183 1.36549 8.95087Z" fill="white"/>
<path d="M11.5872 7.20509L6.99908 11.7931C6.86144 11.9307 6.68075 12 6.50006 12C6.31938 12 6.13869 11.9307 6.00104 11.7931L3.70705 9.49908C3.43098 9.22314 3.43098 8.77699 3.70705 8.50104C3.98299 8.22497 4.42902 8.22497 4.70509 8.50104L6.50006 10.296L10.5892 6.20705C10.8651 5.93098 11.3111 5.93098 11.5872 6.20705C11.8631 6.48299 11.8631 6.92902 11.5872 7.20509Z" fill="white"/>
</svg>
